<svg width="120" height="122" viewBox="0 0 120 122" fill="none" xmlns="http://www.w3.org/2000/svg">
<g filter="url(#filter0_d_1_14)">
<path fill-rule="evenodd" clip-rule="evenodd" d="M91.4062 2C108.75 2 120 13.25 120 30.5938V93.4062C120 110.75 108.75 122 91.4062 122H28.5938C11.25 122 0 110.75 0 93.4062V30.5938C0 13.25 11.25 2 28.5938 2H91.4062Z" fill="url(#paint0_linear_1_14)"/>
</g>
<g filter="url(#filter1_d_1_14)">
<path d="M27.6364 90V43.4545H33.2727V85H54.9091V90H27.6364ZM89.0909 55.0909C88.8182 52.7879 87.7121 51 85.7727 49.7273C83.8333 48.4545 81.4545 47.8182 78.6364 47.8182C76.5758 47.8182 74.7727 48.1515 73.2273 48.8182C71.697 49.4848 70.5 50.4015 69.6364 51.5682C68.7879 52.7348 68.3636 54.0606 68.3636 55.5455C68.3636 56.7879 68.6591 57.8561 69.25 58.75C69.8561 59.6288 70.6288 60.3636 71.5682 60.9545C72.5076 61.5303 73.4924 62.0076 74.5227 62.3864C75.553 62.75 76.5 63.0455 77.3636 63.2727L82.0909 64.5455C83.303 64.8636 84.6515 65.303 86.1364 65.8636C87.6364 66.4242 89.0682 67.1894 90.4318 68.1591C91.8106 69.1136 92.947 70.3409 93.8409 71.8409C94.7349 73.3409 95.1818 75.1818 95.1818 77.3636C95.1818 79.8788 94.5227 82.1515 93.2045 84.1818C91.9015 86.2121 89.9924 87.8258 87.4773 89.0227C84.9773 90.2197 81.9394 90.8182 78.3636 90.8182C75.0303 90.8182 72.1439 90.2803 69.7045 89.2045C67.2803 88.1288 65.3712 86.6288 63.9773 84.7045C62.5985 82.7803 61.8182 80.5455 61.6364 78H67.4545C67.6061 79.7576 68.197 81.2121 69.2273 82.3636C70.2727 83.5 71.5909 84.3485 73.1818 84.9091C74.7879 85.4545 76.5152 85.7273 78.3636 85.7273C80.5152 85.7273 82.447 85.3788 84.1591 84.6818C85.8712 83.9697 87.2273 82.9848 88.2273 81.7273C89.2273 80.4545 89.7273 78.9697 89.7273 77.2727C89.7273 75.7273 89.2955 74.4697 88.4318 73.5C87.5682 72.5303 86.4318 71.7424 85.0227 71.1364C83.6136 70.5303 82.0909 70 80.4545 69.5455L74.7273 67.9091C71.0909 66.8636 68.2121 65.3712 66.0909 63.4318C63.9697 61.4924 62.9091 58.9545 62.9091 55.8182C62.9091 53.2121 63.6136 50.9394 65.0227 49C66.447 47.0455 68.3561 45.5303 70.75 44.4545C73.1591 43.3636 75.8485 42.8182 78.8182 42.8182C81.8182 42.8182 84.4848 43.3561 86.8182 44.4318C89.1515 45.4924 91 46.947 92.3636 48.7955C93.7424 50.6439 94.4697 52.7424 94.5455 55.0909H89.0909Z" fill="#1E1E1E"/>
<path d="M27.6364 90H25.6364V92H27.6364V90ZM27.6364 43.4545V41.4545H25.6364V43.4545H27.6364ZM33.2727 43.4545H35.2727V41.4545H33.2727V43.4545ZM33.2727 85H31.2727V87H33.2727V85ZM54.9091 85H56.9091V83H54.9091V85ZM54.9091 90V92H56.9091V90H54.9091ZM29.6364 90V43.4545H25.6364V90H29.6364ZM27.6364 45.4545H33.2727V41.4545H27.6364V45.4545ZM31.2727 43.4545V85H35.2727V43.4545H31.2727ZM33.2727 87H54.9091V83H33.2727V87ZM52.9091 85V90H56.9091V85H52.9091ZM54.9091 88H27.6364V92H54.9091V88ZM89.0909 55.0909L87.1048 55.3261L87.3138 57.0909H89.0909V55.0909ZM85.7727 49.7273L84.6754 51.3994L84.6754 51.3994L85.7727 49.7273ZM73.2273 48.8182L72.4351 46.9817L72.4285 46.9846L73.2273 48.8182ZM69.6364 51.5682L68.0289 50.3782L68.0239 50.385L68.0189 50.3918L69.6364 51.5682ZM69.25 58.75L67.5816 59.8529L67.5924 59.8693L67.6036 59.8855L69.25 58.75ZM71.5682 60.9545L70.5033 62.6475L70.5131 62.6537L70.5231 62.6597L71.5682 60.9545ZM74.5227 62.3864L73.8326 64.2635L73.8448 64.268L73.8571 64.2723L74.5227 62.3864ZM77.3636 63.2727L77.8836 61.3415L77.8726 61.3386L77.3636 63.2727ZM82.0909 64.5455L81.571 66.4767L81.5831 66.4799L82.0909 64.5455ZM86.1364 65.8636L85.4299 67.7347L85.4362 67.7371L86.1364 65.8636ZM90.4318 68.1591L89.2728 69.789L89.283 69.7963L89.2934 69.8035L90.4318 68.1591ZM93.8409 71.8409L95.559 70.817L95.559 70.817L93.8409 71.8409ZM93.2045 84.1818L91.5271 83.0927L91.5214 83.1016L93.2045 84.1818ZM87.4773 89.0227L86.6178 87.2168L86.6136 87.2188L87.4773 89.0227ZM69.7045 89.2045L68.8933 91.0326L68.8975 91.0345L69.7045 89.2045ZM63.9773 84.7045L62.3515 85.8695L62.3576 85.8779L63.9773 84.7045ZM61.6364 78V76H59.4884L59.6414 78.1425L61.6364 78ZM67.4545 78L69.4472 77.8282L69.2896 76H67.4545V78ZM69.2273 82.3636L67.7368 83.6972L67.746 83.7076L67.7554 83.7177L69.2273 82.3636ZM73.1818 84.9091L72.5171 86.7954L72.5279 86.7992L72.5387 86.8029L73.1818 84.9091ZM84.1591 84.6818L84.9132 86.5342L84.9202 86.5314L84.9272 86.5285L84.1591 84.6818ZM88.2273 81.7273L89.7927 82.9721L89.7999 82.9629L88.2273 81.7273ZM88.4318 73.5L89.9254 72.1698L89.9253 72.1698L88.4318 73.5ZM85.0227 71.1364L84.2325 72.9736L84.2325 72.9736L85.0227 71.1364ZM80.4545 69.5455L79.9051 71.4685L79.9122 71.4705L79.9193 71.4725L80.4545 69.5455ZM74.7273 67.9091L74.1747 69.8312L74.1778 69.8321L74.7273 67.9091ZM66.0909 63.4318L64.7414 64.9079L64.7414 64.9079L66.0909 63.4318ZM65.0227 49L63.4063 47.8222L63.4047 47.8244L65.0227 49ZM70.75 44.4545L71.5698 46.2788L71.575 46.2765L70.75 44.4545ZM86.8182 44.4318L85.9808 46.2481L85.9906 46.2525L86.8182 44.4318ZM92.3636 48.7955L90.7542 49.9828L90.7605 49.9912L92.3636 48.7955ZM94.5455 55.0909V57.0909H96.611L96.5444 55.0264L94.5455 55.0909ZM91.077 54.8557C90.7348 51.9658 89.3033 49.652 86.87 48.0552L84.6754 51.3994C86.121 52.348 86.9016 53.61 87.1048 55.3261L91.077 54.8557ZM86.87 48.0552C84.5405 46.5264 81.7599 45.8182 78.6364 45.8182V49.8182C81.1492 49.8182 83.1262 50.3827 84.6754 51.3994L86.87 48.0552ZM78.6364 45.8182C76.3629 45.8182 74.2801 46.1859 72.4351 46.9818L74.0195 50.6546C75.2653 50.1172 76.7887 49.8182 78.6364 49.8182V45.8182ZM72.4285 46.9846C70.6257 47.77 69.1306 48.8899 68.0289 50.3782L71.2438 52.7581C71.8694 51.9131 72.7682 51.1997 74.0261 50.6517L72.4285 46.9846ZM68.0189 50.3918C66.9141 51.9109 66.3636 53.6512 66.3636 55.5455H70.3636C70.3636 54.47 70.6617 53.5588 71.2538 52.7445L68.0189 50.3918ZM66.3636 55.5455C66.3636 57.116 66.7416 58.5821 67.5816 59.8529L70.9184 57.6471C70.5766 57.13 70.3636 56.4598 70.3636 55.5455H66.3636ZM67.6036 59.8855C68.3698 60.9965 69.3435 61.9179 70.5033 62.6475L72.6331 59.2616C71.914 58.8093 71.3423 58.2611 70.8964 57.6145L67.6036 59.8855ZM70.5231 62.6597C71.5744 63.3041 72.6781 63.8391 73.8326 64.2635L75.2129 60.5092C74.3067 60.1761 73.4407 59.7565 72.6133 59.2493L70.5231 62.6597ZM73.8571 64.2723C74.928 64.6503 75.9281 64.963 76.8547 65.2069L77.8726 61.3386C77.0719 61.1279 76.178 60.8497 75.1884 60.5004L73.8571 64.2723ZM76.8437 65.204L81.571 66.4767L82.6109 62.6142L77.8836 61.3415L76.8437 65.204ZM81.5831 66.4799C82.713 66.7765 83.9939 67.1926 85.4299 67.7347L86.8428 63.9926C85.3091 63.4135 83.893 62.9507 82.5987 62.611L81.5831 66.4799ZM85.4362 67.7371C86.7661 68.2341 88.0445 68.9155 89.2728 69.789L91.5909 66.5292C90.0919 65.4632 88.5066 64.6144 86.8365 63.9902L85.4362 67.7371ZM89.2934 69.8035C90.427 70.5883 91.3693 71.6003 92.1229 72.8648L95.559 70.817C94.5246 69.0815 93.1942 67.639 91.5702 66.5147L89.2934 69.8035ZM92.1229 72.8648C92.7914 73.9866 93.1818 75.4532 93.1818 77.3636H97.1818C97.1818 74.9105 96.6783 72.6952 95.559 70.817L92.1229 72.8648ZM93.1818 77.3636C93.1818 79.5081 92.6263 81.3997 91.5271 83.0927L94.882 85.2709C96.4192 82.9033 97.1818 80.2494 97.1818 77.3636H93.1818ZM91.5214 83.1016C90.4494 84.7718 88.8492 86.1549 86.6178 87.2168L88.3367 90.8286C91.1356 89.4966 93.3536 87.6524 94.8877 85.2621L91.5214 83.1016ZM86.6136 87.2188C84.4496 88.2549 81.724 88.8182 78.3636 88.8182V92.8182C82.1547 92.8182 85.5049 92.1845 88.341 90.8266L86.6136 87.2188ZM78.3636 88.8182C75.2408 88.8182 72.6415 88.3139 70.5115 87.3746L68.8975 91.0345C71.6464 92.2467 74.8198 92.8182 78.3636 92.8182V88.8182ZM70.5158 87.3765C68.3757 86.4268 66.7606 85.1376 65.5969 83.5312L62.3576 85.8779C63.9818 88.12 66.1849 89.8308 68.8933 91.0326L70.5158 87.3765ZM65.603 83.5396C64.4561 81.939 63.7889 80.0645 63.6313 77.8575L59.6414 78.1425C59.8474 81.0264 60.7409 83.6216 62.3515 85.8694L65.603 83.5396ZM61.6364 80H67.4545V76H61.6364V80ZM65.4619 78.1718C65.6451 80.2969 66.3778 82.1783 67.7368 83.6972L70.7178 81.03C70.0162 80.2459 69.567 79.2182 69.4472 77.8282L65.4619 78.1718ZM67.7554 83.7177C69.0424 85.1166 70.6468 86.1363 72.5171 86.7954L73.8465 83.0228C72.535 82.5606 71.5031 81.8834 70.6991 81.0095L67.7554 83.7177ZM72.5387 86.8029C74.3696 87.4247 76.316 87.7273 78.3636 87.7273V83.7273C76.7143 83.7273 75.2061 83.4844 73.825 83.0153L72.5387 86.8029ZM78.3636 87.7273C80.7319 87.7273 82.9257 87.3433 84.9132 86.5342L83.405 82.8294C81.9682 83.4143 80.2984 83.7273 78.3636 83.7273V87.7273ZM84.9272 86.5285C86.9031 85.7066 88.5516 84.5328 89.7927 82.9721L86.6619 80.4825C85.9029 81.4369 84.8393 82.2328 83.391 82.8352L84.9272 86.5285ZM89.7999 82.9629C91.0909 81.3199 91.7273 79.3945 91.7273 77.2727H87.7273C87.7273 78.5449 87.3637 79.5892 86.6546 80.4916L89.7999 82.9629ZM91.7273 77.2727C91.7273 75.3351 91.1752 73.5732 89.9254 72.1698L86.9383 74.8302C87.4157 75.3662 87.7273 76.1194 87.7273 77.2727H91.7273ZM89.9253 72.1698C88.8351 70.9456 87.4425 70 85.8129 69.2991L84.2325 72.9736C85.4211 73.4849 86.3013 74.115 86.9383 74.8302L89.9253 72.1698ZM85.813 69.2991C84.3128 68.6539 82.704 68.0946 80.9898 67.6184L79.9193 71.4725C81.4778 71.9054 82.9145 72.4068 84.2325 72.9736L85.813 69.2991ZM81.004 67.6224L75.2767 65.986L74.1778 69.8321L79.9051 71.4685L81.004 67.6224ZM75.2799 65.987C71.85 65.0008 69.2737 63.6318 67.4404 61.9558L64.7414 64.9079C67.1506 67.1106 70.3318 68.7264 74.1747 69.8312L75.2799 65.987ZM67.4404 61.9558C65.7741 60.4322 64.9091 58.4503 64.9091 55.8182H60.9091C60.9091 59.4588 62.1653 62.5526 64.7414 64.9079L67.4404 61.9558ZM64.9091 55.8182C64.9091 53.5957 65.5018 51.7432 66.6407 50.1756L63.4047 47.8244C61.7255 50.1356 60.9091 52.8286 60.9091 55.8182H64.9091ZM66.6391 50.1778C67.8413 48.5281 69.4652 47.2245 71.5698 46.2788L69.9302 42.6303C67.2469 43.8361 65.0527 45.5629 63.4063 47.8222L66.6391 50.1778ZM71.575 46.2765C73.6947 45.3166 76.0979 44.8182 78.8182 44.8182V40.8182C75.599 40.8182 72.6234 41.4107 69.925 42.6326L71.575 46.2765ZM78.8182 44.8182C81.5772 44.8182 83.9505 45.312 85.9808 46.2481L87.6556 42.6156C85.0192 41.4001 82.0592 40.8182 78.8182 40.8182V44.8182ZM85.9906 46.2525C88.0502 47.1888 89.6156 48.4393 90.7542 49.9827L93.9731 47.6082C92.3844 45.4547 90.2528 43.7961 87.6458 42.6111L85.9906 46.2525ZM90.7605 49.9912C91.8899 51.5054 92.4837 53.2073 92.5465 55.1554L96.5444 55.0264C96.4557 52.2775 95.595 49.7825 93.9668 47.5997L90.7605 49.9912ZM94.5455 53.0909H89.0909V57.0909H94.5455V53.0909Z" fill="black"/>
</g>
<path d="M96 18L98.2451 24.9098H105.511L99.6327 29.1803L101.878 36.0902L96 31.8197L90.1221 36.0902L92.3673 29.1803L86.4894 24.9098H93.7549L96 18Z" fill="#F3F814"/>
<defs>
<filter id="filter0_d_1_14" x="0" y="0" width="120" height="122" filterUnits="userSpaceOnUse" color-interpolation-filters="sRGB">
<feFlood flood-opacity="0" result="BackgroundImageFix"/>
<feColorMatrix in="SourceAlpha" type="matrix" values="0 0 0 0 0 0 0 0 0 0 0 0 0 0 0 0 0 0 127 0" result="hardAlpha"/>
<feOffset dy="-2"/>
<feComposite in2="hardAlpha" operator="out"/>
<feColorMatrix type="matrix" values="0 0 0 0 0.623529 0 0 0 0 0.631373 0 0 0 0 0.639216 0 0 0 1 0"/>
<feBlend mode="normal" in2="BackgroundImageFix" result="effect1_dropShadow_1_14"/>
<feBlend mode="normal" in="SourceGraphic" in2="effect1_dropShadow_1_14" result="shape"/>
</filter>
<filter id="filter1_d_1_14" x="23.6364" y="42.8182" width="75.5455" height="56" filterUnits="userSpaceOnUse" color-interpolation-filters="sRGB">
<feFlood flood-opacity="0" result="BackgroundImageFix"/>
<feColorMatrix in="SourceAlpha" type="matrix" values="0 0 0 0 0 0 0 0 0 0 0 0 0 0 0 0 0 0 127 0" result="hardAlpha"/>
<feOffset dy="4"/>
<feGaussianBlur stdDeviation="2"/>
<feComposite in2="hardAlpha" operator="out"/>
<feColorMatrix type="matrix" values="0 0 0 0 0 0 0 0 0 0 0 0 0 0 0 0 0 0 0.25 0"/>
<feBlend mode="normal" in2="BackgroundImageFix" result="effect1_dropShadow_1_14"/>
<feBlend mode="normal" in="SourceGraphic" in2="effect1_dropShadow_1_14" result="shape"/>
</filter>
<linearGradient id="paint0_linear_1_14" x1="0" y1="2" x2="0" y2="122" gradientUnits="userSpaceOnUse">
<stop stop-color="#14AAFF"/>
<stop offset="0.765625" stop-color="white"/>
<stop offset="1" stop-color="#14F7FF"/>
</linearGradient>
</defs>
</svg>
